/* XPM */
static char *image_xpm[] = {
/* width height ncolors chars_per_pixel */
"16 16 9 1",
"  c #234182",
". c #253a73",
"+ c #ebecec",
"@ c #2b539f",
"# c #fefefe",
"$ c #d9dada",
"% c #7688a1",
"& c #1f4b99",
"* c #9d9e9e",
"################",
"#####$%%$$+#####",
"####%**%%$$$####",
"###%%@&&&&@$%###",
"##%*&&@@&&&&$$##",
"#$*. %###$@&@$+#",
"#%%..%#**#+@&$$#",
"+%@.. #%&*#%&%$#",
"#%@...$%&*#%&%$#",
"#%%..%$**#+@&$$#",
"#$*..%###$@&@$+#",
"##%%......  +$##",
"###%%......%*###",
"####%%%@@%+$####",
"#####$%%$$+#####",
"+#######+#######",
};